<svg width="134" height="24" viewBox="0 0 134 24" fill="none" xmlns="http://www.w3.org/2000/svg">
<g clip-path="url(#clip0_23_1620)">
<g clip-path="url(#clip1_23_1620)">
<path d="M46.9579 17.2655C45.8892 17.2655 44.9472 17.0382 44.1316 16.5838C43.316 16.1293 42.6692 15.4958 42.1911 14.6833C41.7271 13.8708 41.4951 12.9412 41.4951 11.8946C41.4951 10.848 41.7271 9.91833 42.1911 9.10584C42.6692 8.29332 43.316 7.65983 44.1316 7.20537C44.9472 6.75091 45.8892 6.52368 46.9579 6.52368C48.2938 6.52368 49.4187 6.86797 50.3327 7.55654C51.2467 8.23134 51.8302 9.16781 52.0833 10.3659H49.2359C49.0952 9.87014 48.814 9.48453 48.3922 9.20912C47.9844 8.91992 47.4993 8.77532 46.9368 8.77532C46.1916 8.77532 45.5589 9.05075 45.0386 9.6016C44.5183 10.1525 44.2582 10.9168 44.2582 11.8946C44.2582 12.8724 44.5183 13.6367 45.0386 14.1875C45.5589 14.7384 46.1916 15.0138 46.9368 15.0138C47.4993 15.0138 47.9844 14.8761 48.3922 14.6006C48.814 14.3252 49.0952 13.9328 49.2359 13.4232H52.0833C51.8302 14.58 51.2467 15.5096 50.3327 16.2119C49.4187 16.9143 48.2938 17.2655 46.9579 17.2655Z" fill="white"/>
<path d="M59.0776 17.2655C58.0652 17.2655 57.1512 17.0382 56.3356 16.5838C55.5341 16.1293 54.8943 15.5027 54.4163 14.7039C53.9522 13.8914 53.7202 12.9549 53.7202 11.8946C53.7202 10.8342 53.9593 9.90455 54.4373 9.10584C54.9154 8.29332 55.5552 7.65983 56.3567 7.20537C57.1723 6.75091 58.0863 6.52368 59.0987 6.52368C60.0971 6.52368 60.9969 6.75091 61.7985 7.20537C62.614 7.65983 63.2538 8.29332 63.7179 9.10584C64.1959 9.90455 64.435 10.8342 64.435 11.8946C64.435 12.9549 64.1959 13.8914 63.7179 14.7039C63.2538 15.5027 62.614 16.1293 61.7985 16.5838C60.9829 17.0382 60.0759 17.2655 59.0776 17.2655ZM59.0776 14.9725C59.7807 14.9725 60.3923 14.7177 60.9126 14.2082C61.4329 13.6848 61.693 12.9137 61.693 11.8946C61.693 10.8754 61.4329 10.1111 60.9126 9.6016C60.3923 9.07829 59.7877 8.81664 59.0987 8.81664C58.3815 8.81664 57.7629 9.07829 57.2426 9.6016C56.7364 10.1111 56.4833 10.8754 56.4833 11.8946C56.4833 12.9137 56.7364 13.6848 57.2426 14.2082C57.7629 14.7177 58.3745 14.9725 59.0776 14.9725Z" fill="white"/>
<path d="M66.4268 17.0176V6.77156H68.8099L69.0419 8.15561C69.3799 7.65983 69.8226 7.26734 70.3712 6.97814C70.9332 6.67517 71.5806 6.52368 72.3112 6.52368C73.9286 6.52368 75.0746 7.13651 75.7492 8.36218C76.1292 7.79754 76.6352 7.34997 77.2679 7.01945C77.9152 6.68894 78.6179 6.52368 79.3772 6.52368C80.7412 6.52368 81.7886 6.92306 82.5199 7.7218C83.2512 8.52055 83.6166 9.69111 83.6166 11.2335V17.0176H80.9172V11.4814C80.9172 10.6 80.7412 9.92525 80.3899 9.45704C80.0526 8.98878 79.5252 8.75466 78.8079 8.75466C78.0766 8.75466 77.4859 9.01632 77.0359 9.53963C76.5999 10.063 76.3826 10.7929 76.3826 11.7293V17.0176H73.6826V11.4814C73.6826 10.6 73.5066 9.92525 73.1552 9.45704C72.8039 8.98878 72.2626 8.75466 71.5312 8.75466C70.8139 8.75466 70.2306 9.01632 69.7806 9.53963C69.3446 10.063 69.1266 10.7929 69.1266 11.7293V17.0176H66.4268Z" fill="white"/>
<path d="M85.7583 21.5622V6.77156H88.163L88.4583 8.23823C88.7956 7.78377 89.239 7.3844 89.787 7.04011C90.3496 6.69582 91.0736 6.52368 91.9596 6.52368C92.9436 6.52368 93.823 6.75779 94.5963 7.22602C95.3696 7.69426 95.981 8.33463 96.431 9.14715C96.881 9.95966 97.1063 10.8824 97.1063 11.9152C97.1063 12.9481 96.881 13.8708 96.431 14.6833C95.981 15.482 95.3696 16.1156 94.5963 16.5838C93.823 17.0382 92.9436 17.2655 91.9596 17.2655C91.1723 17.2655 90.483 17.1209 89.8923 16.8317C89.3023 16.5424 88.8236 16.1362 88.4583 15.6129V21.5622H85.7583ZM91.3903 14.9518C92.2476 14.9518 92.9583 14.6695 93.5203 14.1049C94.083 13.5403 94.3643 12.8104 94.3643 11.9152C94.3643 11.0201 94.083 10.2833 93.5203 9.70489C92.9583 9.1265 92.2476 8.83729 91.3903 8.83729C90.5183 8.83729 89.801 9.1265 89.239 9.70489C88.6903 10.2695 88.4163 10.9994 88.4163 11.8946C88.4163 12.7897 88.6903 13.5265 89.239 14.1049C89.801 14.6695 90.5183 14.9518 91.3903 14.9518Z" fill="white"/>
<path d="M102.703 17.2655C101.803 17.2655 101.064 17.1277 100.488 16.8523C99.9113 16.5631 99.4826 16.1844 99.2013 15.7162C98.92 15.2479 98.7793 14.7315 98.7793 14.1668C98.7793 13.2166 99.1586 12.4454 99.918 11.8533C100.677 11.2611 101.817 10.965 103.335 10.965H105.993V10.7171C105.993 10.0148 105.789 9.4983 105.381 9.16781C104.973 8.83729 104.467 8.67203 103.863 8.67203C103.314 8.67203 102.836 8.80286 102.428 9.06452C102.021 9.31242 101.767 9.68426 101.669 10.18H99.0326C99.1026 9.43634 99.356 8.78909 99.792 8.23823C100.242 7.68737 100.818 7.26734 101.521 6.97814C102.225 6.67517 103.012 6.52368 103.883 6.52368C105.374 6.52368 106.548 6.88863 107.406 7.61852C108.264 8.3484 108.693 9.3813 108.693 10.7171V17.0176H106.393L106.141 15.365C105.831 15.9158 105.395 16.3703 104.833 16.7284C104.285 17.0864 103.574 17.2655 102.703 17.2655ZM103.314 15.1997C104.087 15.1997 104.685 14.9518 105.107 14.4561C105.543 13.9603 105.817 13.3475 105.929 12.6176H103.631C102.913 12.6176 102.4 12.7484 102.091 13.0101C101.781 13.258 101.627 13.5678 101.627 13.9396C101.627 14.339 101.781 14.6489 102.091 14.8692C102.4 15.0895 102.808 15.1997 103.314 15.1997Z" fill="white"/>
<path d="M110.848 17.0176V6.77156H113.231L113.442 8.50677C113.765 7.90083 114.229 7.41883 114.834 7.06077C115.452 6.70271 116.177 6.52368 117.006 6.52368C118.3 6.52368 119.306 6.92306 120.022 7.7218C120.74 8.52055 121.098 9.69111 121.098 11.2335V17.0176H118.398V11.4814C118.398 10.6 118.216 9.92525 117.85 9.45704C117.484 8.98878 116.915 8.75466 116.142 8.75466C115.382 8.75466 114.756 9.01632 114.264 9.53963C113.786 10.063 113.547 10.7929 113.547 11.7293V17.0176H110.848Z" fill="white"/>
<path d="M124.215 21.5621L126.641 16.3358H126.008L121.938 6.77148H124.869L127.801 13.9809L130.859 6.77148H133.728L127.084 21.5621H124.215Z" fill="white"/>
<path d="M10.7238 19.7811C10.0184 20.472 8.8745 20.471 8.1703 19.779L1.42953 13.1545C0.727063 12.4642 0.728041 11.3471 1.43172 10.6579L8.1725 4.05608C8.87617 3.36691 10.0168 3.36595 10.7216 4.05394L17.4856 10.6557C18.1922 11.3454 18.1932 12.4658 17.4878 13.1566L10.7238 19.7811Z" fill="#0328EE"/>
<path d="M20.0412 19.7785C19.337 20.4705 18.193 20.4715 17.4876 19.7806L10.7237 13.1561C10.0183 12.4653 10.0193 11.3449 10.7259 10.6552L17.4898 4.05345C18.1947 3.36546 19.3353 3.36642 20.039 4.05559L26.7798 10.6574C27.4834 11.3466 27.4844 12.4636 26.782 13.154L20.0412 19.7785Z" fill="white"/>
<path d="M26.9485 19.7798C26.2438 20.4711 25.1 20.4711 24.3952 19.7798L17.6416 13.1551C16.9376 12.4645 16.9386 11.3456 17.6438 10.6562L24.3974 4.05419C25.1016 3.36573 26.2421 3.36573 26.9464 4.05419L33.6998 10.6562C34.4051 11.3456 34.4061 12.4645 33.702 13.1551L26.9485 19.7798Z" fill="#0328EE"/>
</g>
</g>
<defs>
<clipPath id="clip0_23_1620">
<rect width="134" height="24" fill="white"/>
</clipPath>
<clipPath id="clip1_23_1620">
<rect width="134" height="18.9348" fill="white" transform="translate(0.158203 2.75366)"/>
</clipPath>
</defs>
</svg>
