<svg width="134" height="24" viewBox="0 0 134 24" fill="none" xmlns="http://www.w3.org/2000/svg">
<g clip-path="url(#clip0_23_1673)">
<g clip-path="url(#clip1_23_1673)">
<path d="M29.8525 10.493C29.8525 9.10927 30.1615 7.87327 30.7795 6.78507C31.4109 5.68345 32.264 4.83035 33.3387 4.2258C34.427 3.60781 35.6428 3.29883 36.9862 3.29883C38.558 3.29883 39.9351 3.70186 41.1173 4.50793C42.2995 5.314 43.1257 6.42906 43.596 7.85311H40.3516C40.0291 7.18139 39.5723 6.67759 38.9812 6.34174C38.4036 6.00588 37.7318 5.83794 36.966 5.83794C36.1465 5.83794 35.4144 6.03274 34.7695 6.42234C34.1381 6.79851 33.641 7.33588 33.2783 8.0345C32.929 8.73305 32.7544 9.55256 32.7544 10.493C32.7544 11.42 32.929 12.2395 33.2783 12.9515C33.641 13.6501 34.1381 14.1942 34.7695 14.5838C35.4144 14.96 36.1465 15.148 36.966 15.148C37.7318 15.148 38.4036 14.9801 38.9812 14.6443C39.5723 14.2949 40.0291 13.7844 40.3516 13.1127H43.596C43.1257 14.5502 42.2995 15.672 41.1173 16.478C39.9485 17.2707 38.5715 17.667 36.9862 17.667C35.6428 17.667 34.427 17.3648 33.3387 16.7602C32.264 16.1422 31.4109 15.2891 30.7795 14.2009C30.1615 13.1127 29.8525 11.8767 29.8525 10.493Z" fill="white"/>
<path d="M50.963 17.7274C49.8882 17.7274 48.9209 17.4924 48.0611 17.0221C47.2013 16.5385 46.5228 15.8601 46.0258 14.9869C45.5421 14.1136 45.3003 13.106 45.3003 11.9641C45.3003 10.8221 45.5488 9.81453 46.046 8.94134C46.5565 8.06808 47.2483 7.39636 48.1216 6.92615C48.9948 6.4425 49.9688 6.20068 51.0436 6.20068C52.1183 6.20068 53.0923 6.4425 53.9656 6.92615C54.8388 7.39636 55.524 8.06808 56.021 8.94134C56.5315 9.81453 56.7868 10.8221 56.7868 11.9641C56.7868 13.106 56.5248 14.1136 56.0008 14.9869C55.4903 15.8601 54.7918 16.5385 53.9051 17.0221C53.0319 17.4924 52.0511 17.7274 50.963 17.7274ZM50.963 15.269C51.4735 15.269 51.9504 15.148 52.3937 14.9062C52.8505 14.651 53.2132 14.2748 53.4819 13.7777C53.7506 13.2807 53.885 12.6761 53.885 11.9641C53.885 10.9028 53.6028 10.09 53.0386 9.5257C52.4878 8.94804 51.8093 8.65921 51.0032 8.65921C50.1972 8.65921 49.5187 8.94804 48.968 9.5257C48.4306 10.09 48.1618 10.9028 48.1618 11.9641C48.1618 13.0254 48.4238 13.8449 48.9478 14.4226C49.4852 14.9869 50.1569 15.269 50.963 15.269Z" fill="white"/>
<path d="M72.7208 6.22095C74.0912 6.22095 75.1931 6.64413 76.0255 7.49051C76.8717 8.32345 77.2956 9.49224 77.2956 10.9969V17.5462H74.4743V11.3798C74.4743 10.5066 74.2523 9.84151 73.809 9.38475C73.3657 8.91458 72.7611 8.67943 71.9954 8.67943C71.2296 8.67943 70.6183 8.91458 70.1615 9.38475C69.7182 9.84151 69.4966 10.5066 69.4966 11.3798V17.5462H66.6753V11.3798C66.6753 10.5066 66.4537 9.84151 66.0103 9.38475C65.5669 8.91458 64.9624 8.67943 64.1966 8.67943C63.4175 8.67943 62.7995 8.91458 62.3427 9.38475C61.8993 9.84151 61.6777 10.5066 61.6777 11.3798V17.5462H58.8564V6.38216H61.6777V7.73233C62.0404 7.26212 62.5039 6.89267 63.0681 6.62398C63.6459 6.3553 64.2773 6.22095 64.9624 6.22095C65.8357 6.22095 66.6148 6.40904 67.3 6.7852C67.9852 7.14793 68.5158 7.67188 68.892 8.35702C69.2547 7.71218 69.7787 7.19495 70.4638 6.80535C71.1625 6.41575 71.9147 6.22095 72.7208 6.22095Z" fill="white"/>
<path d="M82.7939 7.99419C83.1566 7.48368 83.6533 7.06049 84.2847 6.72463C84.9299 6.37534 85.6618 6.20068 86.4811 6.20068C87.4351 6.20068 88.2952 6.43579 89.0606 6.906C89.8399 7.3762 90.4516 8.04791 90.8944 8.92117C91.3517 9.78095 91.5797 10.7819 91.5797 11.9238C91.5797 13.0657 91.3517 14.08 90.8944 14.9667C90.4516 15.8399 89.8399 16.5184 89.0606 17.002C88.2952 17.4857 87.4351 17.7274 86.4811 17.7274C85.6618 17.7274 84.9365 17.5595 84.3051 17.2237C83.6868 16.8878 83.1836 16.4646 82.7939 15.9541V22.8661H79.9727V6.38205H82.7939V7.99419ZM88.6979 11.9238C88.6979 11.252 88.5574 10.6744 88.2748 10.1907C88.0061 9.69363 87.6434 9.31749 87.1868 9.06223C86.7433 8.80698 86.2597 8.67931 85.7361 8.67931C85.2256 8.67931 84.742 8.81368 84.2847 9.0824C83.8419 9.33766 83.4785 9.71381 83.1967 10.2108C82.9279 10.708 82.7939 11.2924 82.7939 11.9641C82.7939 12.6358 82.9279 13.2202 83.1967 13.7173C83.4785 14.2144 83.8419 14.5972 84.2847 14.866C84.742 15.1211 85.2256 15.2488 85.7361 15.2488C86.2597 15.2488 86.7433 15.1144 87.1868 14.8458C87.6434 14.5771 88.0061 14.1942 88.2748 13.6971C88.5574 13.2001 88.6979 12.6089 88.6979 11.9238Z" fill="white"/>
<path d="M92.9043 11.9238C92.9043 10.7953 93.1264 9.79443 93.5692 8.92117C94.0258 8.04791 94.6376 7.3762 95.403 6.906C96.1822 6.43579 97.0488 6.20068 98.0029 6.20068C98.836 6.20068 99.5613 6.36861 100.179 6.70448C100.81 7.04034 101.314 7.46352 101.691 7.97404V6.38205H104.532V17.5461H101.691V15.9138C101.328 16.4378 100.824 16.8744 100.179 17.2237C99.5475 17.5595 98.8156 17.7274 97.9825 17.7274C97.0423 17.7274 96.1822 17.4857 95.403 17.002C94.6376 16.5184 94.0258 15.8399 93.5692 14.9667C93.1264 14.08 92.9043 13.0657 92.9043 11.9238ZM101.691 11.9641C101.691 11.2789 101.556 10.6945 101.287 10.2108C101.019 9.71381 100.656 9.33766 100.199 9.0824C99.7427 8.81368 99.2525 8.67931 98.7282 8.67931C98.2046 8.67931 97.721 8.80698 97.2775 9.06223C96.834 9.31749 96.4713 9.69363 96.1895 10.1907C95.9207 10.6744 95.786 11.252 95.786 11.9238C95.786 12.5955 95.9207 13.1866 96.1895 13.6971C96.4713 14.1942 96.834 14.5771 97.2775 14.8458C97.7341 15.1144 98.2177 15.2488 98.7282 15.2488C99.2525 15.2488 99.7427 15.1211 100.199 14.866C100.656 14.5972 101.019 14.2211 101.287 13.7374C101.556 13.2403 101.691 12.6492 101.691 11.9641Z" fill="white"/>
<path d="M113.474 6.22095C114.804 6.22095 115.879 6.64413 116.698 7.49051C117.518 8.32345 117.927 9.49224 117.927 10.9969V17.5462H115.106V11.3798C115.106 10.4931 114.885 9.81464 114.441 9.34447C113.998 8.86084 113.393 8.61898 112.628 8.61898C111.849 8.61898 111.23 8.86084 110.774 9.34447C110.33 9.81464 110.109 10.4931 110.109 11.3798V17.5462H107.288V6.38216H110.109V7.77263C110.485 7.28899 110.962 6.91282 111.539 6.64413C112.131 6.36201 112.776 6.22095 113.474 6.22095Z" fill="white"/>
<path d="M131.291 6.38208L124.379 22.8259H121.376L123.794 17.264L119.32 6.38208H122.484L125.366 14.1808L128.288 6.38208H131.291Z" fill="white"/>
<path d="M4.07705 23.613H2.06592V9.52979H9.60992V18.0802C9.60992 21.1355 7.1341 23.613 4.07705 23.613Z" fill="#0328EE"/>
<path d="M19.6691 9.52989C19.6691 4.66979 15.7294 0.728271 10.8675 0.728271C10.4405 0.728271 10.0207 0.760564 9.60986 0.819768V9.52989H19.6691Z" fill="#0328EE"/>
<path d="M16.8189 18.808C18.7482 18.0207 19.6741 15.8186 18.8869 13.8893C18.0996 11.96 15.8975 11.0342 13.9681 11.8214C12.0388 12.6086 11.113 14.8108 11.9003 16.7401C12.6875 18.6694 14.8897 19.5952 16.8189 18.808Z" fill="white"/>
</g>
</g>
<defs>
<clipPath id="clip0_23_1673">
<rect width="134" height="24" fill="white"/>
</clipPath>
<clipPath id="clip1_23_1673">
<rect width="130.359" height="23.3043" fill="white" transform="translate(1.45654 0.728271)"/>
</clipPath>
</defs>
</svg>
