<svg width="134" height="24" viewBox="0 0 134 24" fill="none" xmlns="http://www.w3.org/2000/svg">
<g clip-path="url(#clip0_23_1633)">
<path d="M47.1933 13.033C46.2735 14.5252 44.9654 15.3836 43.2689 15.3836C40.8162 15.3836 39.0174 13.4009 39.0174 10.846C39.0174 8.29105 40.7344 6.32885 43.3098 6.32885C44.945 6.32885 46.4166 7.24863 47.1524 8.63853L49.5234 6.75808C48.3175 4.61191 46.1304 3.32422 43.3507 3.32422C38.8948 3.32422 35.7676 6.63544 35.7676 10.846C35.7676 15.0566 38.9561 18.3882 43.3098 18.3882C46.0487 18.3882 48.3379 16.937 49.5847 14.8726L47.1933 13.033Z" fill="white"/>
<path d="M56.078 7.41211C52.8076 7.41211 50.457 9.78312 50.457 12.89C50.457 15.9763 52.8076 18.3882 56.078 18.3882C59.3483 18.3882 61.6988 15.9763 61.6988 12.89C61.6988 9.78312 59.3483 7.41211 56.078 7.41211ZM56.078 10.1714C57.4883 10.1714 58.5511 11.2548 58.5511 12.89C58.5511 14.5251 57.4883 15.6289 56.078 15.6289C54.6676 15.6289 53.6048 14.5251 53.6048 12.89C53.6048 11.2548 54.6676 10.1714 56.078 10.1714Z" fill="white"/>
<path d="M63.7295 7.65738V18.1429H66.8363V12.6855C66.8363 11.3161 67.5517 10.151 68.8598 10.151C70.0045 10.151 70.7402 10.8664 70.7402 12.2358V18.1429H73.8471V12.6855C73.8471 11.3161 74.5625 10.151 75.8706 10.151C77.0153 10.151 77.7305 10.8664 77.7305 12.2358V18.1429H80.8372V11.7657C80.8372 9.04727 79.3042 7.41211 76.7903 7.41211C75.0121 7.41211 74.0106 8.18881 73.2543 9.25164C72.539 8.08662 71.3944 7.41211 69.7796 7.41211C68.4102 7.41211 67.3882 7.94354 66.7137 9.0064V7.65738H63.7295Z" fill="white"/>
<path d="M88.9886 10.151C90.317 10.151 91.421 11.2343 91.421 12.9308C91.421 14.566 90.317 15.6493 88.9886 15.6493C87.5991 15.6493 86.5154 14.5864 86.5154 12.9308C86.5154 11.2139 87.5991 10.151 88.9886 10.151ZM86.3727 7.65738H83.4902V22.2308H86.597V16.9983C87.251 17.9794 88.4985 18.3882 89.6222 18.3882C92.4835 18.3882 94.5482 16.0172 94.5482 12.89C94.5482 9.66048 92.3204 7.41211 89.6426 7.41211C88.6208 7.41211 87.1898 7.84134 86.3727 9.10859V7.65738Z" fill="white"/>
<path d="M102.022 11.6226L99.1604 12.1745C96.9523 12.6447 95.7471 13.7075 95.7471 15.261C95.7471 17.0801 97.1774 18.3882 99.2216 18.3882C100.611 18.3882 101.634 17.775 102.124 16.8552V18.1429H105.006V11.5409C105.006 8.98596 103.269 7.41211 100.345 7.41211C98.3834 7.41211 96.8096 8.22969 95.849 9.39474L97.4636 11.357C98.0972 10.6416 98.9966 10.0897 100.162 10.0897C101.224 10.0897 102.022 10.4985 102.022 11.5409V11.6226ZM99.9164 16.0785C99.1808 16.0785 98.7104 15.6697 98.7104 15.077C98.7104 14.5047 99.1196 14.1367 99.9571 13.9936L102.042 13.5849V13.8915C102.042 15.1383 101.204 16.0785 99.9164 16.0785Z" fill="white"/>
<path d="M107.623 7.65738V18.1429H110.729V12.6855C110.729 11.3161 111.445 10.151 112.794 10.151C113.939 10.151 114.674 10.8664 114.674 12.2358V18.1429H117.781V11.7657C117.781 9.04727 116.228 7.41211 113.714 7.41211C112.303 7.41211 111.281 7.94354 110.607 9.0064V7.65738H107.623Z" fill="white"/>
<path d="M122.854 17.7547L122.732 18.1021C122.282 19.5942 121.526 19.8599 120.708 19.8599C120.361 19.8599 119.829 19.8191 119.277 19.5125V22.0878C119.747 22.3127 120.422 22.4762 121.157 22.4762C123.14 22.4762 124.407 21.536 125.45 19.0015L130.028 7.65747H126.86L124.407 14.5252L121.975 7.65747H118.726L122.854 17.7547Z" fill="white"/>
<path d="M17.2669 1.9043H14.005C13.6643 1.9043 13.3882 2.18046 13.3882 2.52113V19.8881C13.3882 20.2288 13.6643 20.5049 14.005 20.5049H17.2669C17.6076 20.5049 17.8837 20.2288 17.8837 19.8881V2.52113C17.8837 2.18046 17.6076 1.9043 17.2669 1.9043Z" fill="white"/>
<path d="M23.9156 20.5048C26.0261 20.5048 27.737 18.7939 27.737 16.6835C27.737 14.573 26.0261 12.8621 23.9156 12.8621C21.8051 12.8621 20.0942 14.573 20.0942 16.6835C20.0942 18.7939 21.8051 20.5048 23.9156 20.5048Z" fill="#0328EE"/>
<path d="M23.9156 9.54702C26.0261 9.54702 27.737 7.83614 27.737 5.72566C27.737 3.61518 26.0261 1.9043 23.9156 1.9043C21.8051 1.9043 20.0942 3.61518 20.0942 5.72566C20.0942 7.83614 21.8051 9.54702 23.9156 9.54702Z" fill="#0328EE"/>
<path d="M7.35701 20.5048C9.46749 20.5048 11.1784 18.7939 11.1784 16.6835C11.1784 14.573 9.46749 12.8621 7.35701 12.8621C5.24652 12.8621 3.53564 14.573 3.53564 16.6835C3.53564 18.7939 5.24652 20.5048 7.35701 20.5048Z" fill="#0328EE"/>
</g>
<defs>
<clipPath id="clip0_23_1633">
<rect width="127.446" height="21.1196" fill="white" transform="translate(3.27734 1.84351)"/>
</clipPath>
</defs>
</svg>
