<svg width="134" height="24" viewBox="0 0 134 24" fill="none" xmlns="http://www.w3.org/2000/svg">
<g clip-path="url(#clip0_23_1648)">
<path d="M30.9863 10.2274C30.9863 8.84362 31.2953 7.60764 31.9133 6.51945C32.5447 5.41783 33.3978 4.56474 34.4725 3.96018C35.5608 3.3422 36.7766 3.0332 38.12 3.0332C39.6918 3.0332 41.0689 3.43624 42.2511 4.24231C43.4333 5.04838 44.2595 6.16344 44.7298 7.58749H41.4854C41.1629 6.91577 40.7061 6.41198 40.115 6.07612C39.5373 5.74025 38.8656 5.57232 38.0998 5.57232C37.2803 5.57232 36.5482 5.76712 35.9033 6.15672C35.2719 6.53289 34.7748 7.07027 34.4121 7.76886C34.0628 8.46745 33.8882 9.28698 33.8882 10.2274C33.8882 11.1543 34.0628 11.9738 34.4121 12.6858C34.7748 13.3845 35.2719 13.9286 35.9033 14.3182C36.5482 14.6943 37.2803 14.8824 38.0998 14.8824C38.8656 14.8824 39.5373 14.7145 40.115 14.3786C40.7061 14.0293 41.1629 13.5188 41.4854 12.8471H44.7298C44.2595 14.2846 43.4333 15.4063 42.2511 16.2125C41.0823 17.0051 39.7053 17.4014 38.12 17.4014C36.7766 17.4014 35.5608 17.0991 34.4725 16.4946C33.3978 15.8766 32.5447 15.0235 31.9133 13.9353C31.2953 12.8471 30.9863 11.6112 30.9863 10.2274Z" fill="white"/>
<path d="M52.0963 17.4616C51.0215 17.4616 50.0542 17.2265 49.1944 16.7563C48.3346 16.2727 47.6562 15.5942 47.1591 14.721C46.6754 13.8477 46.4336 12.8401 46.4336 11.6982C46.4336 10.5562 46.6822 9.5487 47.1793 8.67545C47.6898 7.80221 48.3816 7.13048 49.2549 6.66028C50.1281 6.17663 51.1021 5.93481 52.1769 5.93481C53.2516 5.93481 54.2256 6.17663 55.0989 6.66028C55.9721 7.13048 56.6573 7.80221 57.1543 8.67545C57.6648 9.5487 57.9201 10.5562 57.9201 11.6982C57.9201 12.8401 57.6581 13.8477 57.1342 14.721C56.6237 15.5942 55.9251 16.2727 55.0384 16.7563C54.1652 17.2265 53.1844 17.4616 52.0963 17.4616ZM52.0963 15.0031C52.6068 15.0031 53.0837 14.8822 53.527 14.6403C53.9838 14.3851 54.3465 14.0089 54.6152 13.5119C54.8839 13.0148 55.0183 12.4103 55.0183 11.6982C55.0183 10.6369 54.7361 9.82413 54.1719 9.25987C53.6211 8.68216 52.9426 8.39332 52.1365 8.39332C51.3305 8.39332 50.652 8.68216 50.1013 9.25987C49.5639 9.82413 49.2951 10.6369 49.2951 11.6982C49.2951 12.7595 49.5572 13.579 50.0811 14.1567C50.6185 14.721 51.2902 15.0031 52.0963 15.0031Z" fill="white"/>
<path d="M73.8542 5.95508C75.2245 5.95508 76.3264 6.37826 77.1588 7.22463C78.005 8.05757 78.4289 9.22634 78.4289 10.7311V17.2803H75.6076V11.1139C75.6076 10.2407 75.3855 9.57569 74.942 9.1189C74.4992 8.64869 73.8944 8.41358 73.1287 8.41358C72.3629 8.41358 71.7516 8.64869 71.2948 9.1189C70.8515 9.57569 70.6299 10.2407 70.6299 11.1139V17.2803H67.8086V11.1139C67.8086 10.2407 67.587 9.57569 67.1436 9.1189C66.7003 8.64869 66.0957 8.41358 65.3299 8.41358C64.5508 8.41358 63.9328 8.64869 63.476 9.1189C63.0326 9.57569 62.811 10.2407 62.811 11.1139V17.2803H59.9897V6.11629H62.811V7.46646C63.1737 6.99625 63.6372 6.6268 64.2014 6.35811C64.7792 6.08942 65.4106 5.95508 66.0957 5.95508C66.969 5.95508 67.7481 6.14316 68.4333 6.51933C69.1185 6.88206 69.6491 7.406 70.0253 8.09116C70.388 7.44631 70.912 6.92908 71.5971 6.53948C72.2958 6.14988 73.048 5.95508 73.8542 5.95508Z" fill="white"/>
<path d="M83.9272 7.72832C84.2899 7.21781 84.7866 6.79462 85.418 6.45876C86.0632 6.10947 86.7951 5.93481 87.6144 5.93481C88.5684 5.93481 89.4285 6.16992 90.1939 6.64013C90.9732 7.11033 91.5849 7.78205 92.0277 8.6553C92.485 9.51513 92.713 10.516 92.713 11.6579C92.713 12.7998 92.485 13.8141 92.0277 14.7008C91.5849 15.574 90.9732 16.2525 90.1939 16.7361C89.4285 17.2198 88.5684 17.4616 87.6144 17.4616C86.7951 17.4616 86.0698 17.2937 85.4384 16.9578C84.8201 16.6219 84.3169 16.1987 83.9272 15.6882V22.6003H81.106V6.11618H83.9272V7.72832ZM89.8312 11.6579C89.8312 10.9862 89.6907 10.4085 89.4081 9.92485C89.1394 9.42781 88.7767 9.05161 88.3201 8.79636C87.8766 8.5411 87.393 8.41347 86.8694 8.41347C86.3589 8.41347 85.8753 8.54782 85.418 8.81651C84.9752 9.07176 84.6118 9.44791 84.33 9.94502C84.0612 10.4421 83.9272 11.0265 83.9272 11.6982C83.9272 12.3699 84.0612 12.9543 84.33 13.4514C84.6118 13.9485 84.9752 14.3313 85.418 14.6001C85.8753 14.8553 86.3589 14.9829 86.8694 14.9829C87.393 14.9829 87.8766 14.8486 88.3201 14.5799C88.7767 14.3112 89.1394 13.9283 89.4081 13.4313C89.6907 12.9342 89.8312 12.343 89.8312 11.6579Z" fill="white"/>
<path d="M94.0376 11.6579C94.0376 10.5294 94.2597 9.52853 94.7025 8.6553C95.1591 7.78206 95.7709 7.11033 96.5363 6.64013C97.3155 6.16992 98.1821 5.93481 99.1362 5.93481C99.9693 5.93481 100.695 6.10274 101.312 6.4386C101.944 6.77447 102.448 7.19765 102.824 7.70817V6.11618H105.665V17.2802H102.824V15.648C102.461 16.1719 101.957 16.6085 101.312 16.9578C100.681 17.2937 99.9489 17.4616 99.1158 17.4616C98.1756 17.4616 97.3155 17.2198 96.5363 16.7361C95.7709 16.2525 95.1591 15.574 94.7025 14.7008C94.2597 13.8141 94.0376 12.7998 94.0376 11.6579ZM102.824 11.6982C102.824 11.013 102.689 10.4287 102.421 9.94502C102.152 9.44791 101.789 9.07176 101.333 8.81651C100.876 8.54782 100.386 8.41347 99.8615 8.41347C99.3379 8.41347 98.8543 8.5411 98.4108 8.79636C97.9673 9.05161 97.6046 9.42781 97.3228 9.92485C97.0541 10.4085 96.9193 10.9862 96.9193 11.6579C96.9193 12.3296 97.0541 12.9208 97.3228 13.4313C97.6046 13.9283 97.9673 14.3112 98.4108 14.5799C98.8674 14.8486 99.351 14.9829 99.8615 14.9829C100.386 14.9829 100.876 14.8553 101.333 14.6001C101.789 14.3313 102.152 13.9552 102.421 13.4715C102.689 12.9745 102.824 12.3834 102.824 11.6982Z" fill="white"/>
<path d="M114.607 5.95508C115.937 5.95508 117.012 6.37826 117.831 7.22463C118.652 8.05757 119.061 9.22634 119.061 10.7311V17.2803H116.24V11.1139C116.24 10.2273 116.018 9.54881 115.575 9.0786C115.131 8.59495 114.527 8.35313 113.761 8.35313C112.982 8.35313 112.364 8.59495 111.907 9.0786C111.464 9.54881 111.242 10.2273 111.242 11.1139V17.2803H108.421V6.11629H111.242V7.50676C111.618 7.02312 112.095 6.64696 112.672 6.37826C113.264 6.09614 113.909 5.95508 114.607 5.95508Z" fill="white"/>
<path d="M132.425 6.11621L125.513 22.56H122.51L124.928 16.9981L120.454 6.11621H123.618L126.499 13.9149L129.422 6.11621H132.425Z" fill="white"/>
<path d="M9.83347 22.4516C5.52596 22.4516 2.04785 18.9467 2.04785 14.6659C2.04785 10.3852 5.52596 6.88037 9.83347 6.88037C14.1142 6.88037 17.6191 10.3585 17.6191 14.6659C17.5923 18.9467 14.1142 22.4516 9.83347 22.4516Z" fill="#0328EE"/>
<path d="M21.3411 1.90454H11.0869C10.3944 1.90454 9.83301 2.46592 9.83301 3.15841V13.4127C9.83301 14.1052 10.3944 14.6665 11.0869 14.6665H21.3411C22.0336 14.6665 22.595 14.1052 22.595 13.4127V3.15841C22.595 2.46592 22.0336 1.90454 21.3411 1.90454Z" fill="white"/>
</g>
<defs>
<clipPath id="clip0_23_1648">
<rect width="131.087" height="21.1196" fill="white" transform="translate(1.45605 1.84351)"/>
</clipPath>
</defs>
</svg>
