<svg width="130" height="22" viewBox="0 0 130 22" fill="none" xmlns="http://www.w3.org/2000/svg">
<g clip-path="url(#clip0_23_1661)">
<path d="M16.6451 9.76011C13.9066 9.76011 11.6836 7.54559 11.6836 4.82392C11.6836 4.46891 11.7259 4.13082 11.7935 3.79272H5.20061C2.64798 3.79272 0.577148 5.85511 0.577148 8.39083V16.8855C0.577148 19.4297 2.64798 21.4836 5.20061 21.4836H13.7376C16.2986 21.4836 18.361 19.4212 18.361 16.8855V9.44739C17.8369 9.64177 17.2537 9.76011 16.6451 9.76011Z" fill="#0328EE"/>
<path d="M18.3688 16.8855V9.44739C17.8363 9.64177 17.2531 9.76011 16.653 9.76011C13.9144 9.76011 11.6914 7.54559 11.6914 4.82392C11.6914 4.46891 11.7337 4.13082 11.8013 3.79272H5.20842C2.6727 3.79272 0.61877 5.8213 0.584961 8.34015C6.67069 10.8505 12.9255 13.9018 18.335 17.4687C18.3519 17.2743 18.3688 17.0799 18.3688 16.8855Z" fill="#0328EE"/>
<path d="M17.0249 8.05526C19.0112 8.05526 20.6172 6.45776 20.6172 4.4799C20.6172 2.5105 19.0112 0.904541 17.0249 0.904541C15.0386 0.904541 13.4326 2.50204 13.4326 4.4799C13.4326 6.44931 15.0386 8.05526 17.0249 8.05526Z" fill="white"/>
<path d="M38.7891 12.6034C38.6478 13.2042 38.4092 13.7874 38.0734 14.353C37.7377 14.9008 37.3223 15.3956 36.8275 15.8374C36.3326 16.2616 35.7671 16.6062 35.1309 16.8713C34.4947 17.1187 33.8143 17.2424 33.0897 17.2424C32.2591 17.2424 31.4726 17.0833 30.7304 16.7652C30.0059 16.4294 29.3608 15.9788 28.7953 15.4133C28.2474 14.8478 27.8056 14.1939 27.4698 13.4517C27.1517 12.6917 26.9927 11.8788 26.9927 11.0128C26.9927 10.1469 27.1517 9.34273 27.4698 8.60049C27.8056 7.84057 28.2474 7.17784 28.7953 6.61232C29.3608 6.04679 30.0059 5.60498 30.7304 5.28687C31.4726 4.95109 32.2591 4.7832 33.0897 4.7832C33.8143 4.7832 34.4947 4.91575 35.1309 5.18083C35.7671 5.42825 36.3326 5.77287 36.8275 6.21469C37.3223 6.63883 37.7377 7.13367 38.0734 7.69919C38.4092 8.24707 38.6478 8.82137 38.7891 9.42226H35.7406C35.5993 9.10416 35.4048 8.82137 35.1574 8.57398C34.9454 8.36191 34.6715 8.16754 34.3357 7.99078C33.9999 7.79638 33.5845 7.69919 33.0897 7.69919C32.2238 7.69919 31.4992 7.99962 30.916 8.60049C30.3328 9.20138 30.0412 10.0055 30.0412 11.0128C30.0412 12.0201 30.3328 12.8243 30.916 13.4251C31.4992 14.026 32.2238 14.3264 33.0897 14.3264C33.5845 14.3264 33.9999 14.238 34.3357 14.0614C34.6715 13.8846 34.9454 13.6902 35.1574 13.4782C35.4048 13.2307 35.5993 12.9391 35.7406 12.6034H38.7891Z" fill="white"/>
<path d="M43.8258 11.0128C43.8258 12.0201 44.1174 12.8243 44.7006 13.4251C45.2838 14.026 46.0084 14.3264 46.8744 14.3264C47.7403 14.3264 48.4649 14.026 49.0481 13.4251C49.6313 12.8243 49.9229 12.0201 49.9229 11.0128C49.9229 10.0055 49.6313 9.20138 49.0481 8.60049C48.4649 7.99962 47.7403 7.69919 46.8744 7.69919C46.0084 7.69919 45.2838 7.99962 44.7006 8.60049C44.1174 9.20138 43.8258 10.0055 43.8258 11.0128ZM52.9714 11.0128C52.9714 11.8788 52.8036 12.6917 52.4678 13.4517C52.1496 14.1939 51.7079 14.8478 51.1423 15.4133C50.5944 15.9788 49.9494 16.4294 49.2072 16.7652C48.4826 17.0833 47.705 17.2424 46.8744 17.2424C46.0438 17.2424 45.2573 17.0833 44.5151 16.7652C43.7905 16.4294 43.1454 15.9788 42.5799 15.4133C42.0321 14.8478 41.5902 14.1939 41.2545 13.4517C40.9364 12.6917 40.7773 11.8788 40.7773 11.0128C40.7773 10.1469 40.9364 9.34273 41.2545 8.60049C41.5902 7.84057 42.0321 7.17784 42.5799 6.61232C43.1454 6.04679 43.7905 5.60498 44.5151 5.28687C45.2573 4.95109 46.0438 4.7832 46.8744 4.7832C47.705 4.7832 48.4826 4.95109 49.2072 5.28687C49.9494 5.60498 50.5944 6.04679 51.1423 6.61232C51.7079 7.17784 52.1496 7.84057 52.4678 8.60049C52.8036 9.34273 52.9714 10.1469 52.9714 11.0128Z" fill="white"/>
<path d="M61.4421 4.7832C62.0606 4.7832 62.5908 4.87156 63.0326 5.04829C63.4745 5.20734 63.8368 5.38407 64.1195 5.57847C64.4376 5.80822 64.6939 6.0733 64.8882 6.37374C65.171 6.0733 65.4979 5.80822 65.8691 5.57847C66.1872 5.38407 66.5672 5.20734 67.009 5.04829C67.4508 4.87156 67.9368 4.7832 68.467 4.7832C69.7924 4.7832 70.8528 5.20734 71.648 6.05563C72.4433 6.90392 72.8409 8.15866 72.8409 9.81989V17.1099H69.7924V10.085C69.7924 9.34274 69.5892 8.75954 69.1827 8.3354C68.7939 7.91126 68.3345 7.69919 67.8043 7.69919C67.2741 7.69919 66.8058 7.91126 66.3993 8.3354C66.0105 8.75954 65.8161 9.34274 65.8161 10.085V17.1099H62.7676V10.085C62.7676 9.34274 62.5643 8.75954 62.1579 8.3354C61.769 7.91126 61.3096 7.69919 60.7794 7.69919C60.2492 7.69919 59.7809 7.91126 59.3744 8.3354C58.9856 8.75954 58.7913 9.34274 58.7913 10.085V17.1099H55.7427V4.91575H57.9959L58.5262 6.10864C58.7736 5.86123 59.0475 5.64032 59.3479 5.44592C59.5953 5.28687 59.8957 5.13665 60.2492 4.99527C60.6027 4.85389 61.0003 4.7832 61.4421 4.7832Z" fill="white"/>
<path d="M82.3838 4.7832C83.1441 4.7832 83.8688 4.94226 84.5577 5.26036C85.2466 5.5608 85.8474 5.99378 86.3601 6.5593C86.8903 7.10716 87.3062 7.76104 87.6062 8.52097C87.9245 9.28091 88.0832 10.1115 88.0832 11.0128C88.0832 11.9141 87.9245 12.7447 87.6062 13.5047C87.3062 14.2645 86.8903 14.9273 86.3601 15.4928C85.8474 16.0407 85.2466 16.4736 84.5577 16.7918C83.8688 17.0922 83.1441 17.2424 82.3838 17.2424C81.8711 17.2424 81.4211 17.1806 81.0322 17.0568C80.6608 16.9332 80.3338 16.8006 80.0512 16.6592C79.733 16.4825 79.4504 16.2793 79.2028 16.0495V21.3513H76.1543V4.91575H78.4075L78.9377 6.10864C79.2028 5.86123 79.5123 5.64032 79.8655 5.44592C80.1663 5.28687 80.5282 5.13665 80.9528 4.99527C81.3767 4.85389 81.8537 4.7832 82.3838 4.7832ZM78.9377 11.0128C78.9377 12.0201 79.2297 12.8243 79.8124 13.4251C80.3957 14.026 81.1203 14.3264 81.9862 14.3264C82.8521 14.3264 83.5767 14.026 84.1601 13.4251C84.7434 12.8243 85.0347 12.0201 85.0347 11.0128C85.0347 10.0055 84.7434 9.20138 84.1601 8.60049C83.5767 7.99962 82.8521 7.69919 81.9862 7.69919C81.1203 7.69919 80.3957 7.99962 79.8124 8.60049C79.2297 9.20138 78.9377 10.0055 78.9377 11.0128Z" fill="white"/>
<path d="M95.9076 4.7832C96.5966 4.7832 97.2331 4.90691 97.8164 5.15432C98.3998 5.38407 98.903 5.71101 99.3276 6.13515C99.7514 6.5593 100.078 7.06297 100.309 7.64617C100.555 8.22937 100.679 8.86558 100.679 9.5548V17.1099H98.426L97.8958 15.917C97.6132 16.1644 97.3037 16.3853 96.968 16.5797C96.668 16.7564 96.3053 16.9155 95.8814 17.0568C95.4569 17.1806 94.9798 17.2424 94.4497 17.2424C93.1242 17.2424 92.1083 16.9243 91.4012 16.2881C90.694 15.6342 90.3408 14.8036 90.3408 13.7963C90.3408 13.1954 90.4559 12.6475 90.6853 12.1527C90.9329 11.6402 91.3393 11.2072 91.9051 10.8537C92.4703 10.4826 93.2124 10.1999 94.1314 10.0055C95.068 9.79338 96.2346 9.68735 97.6307 9.68735C97.6307 9.01582 97.445 8.49446 97.0743 8.12333C96.7204 7.75221 96.2434 7.56665 95.6426 7.56665C95.2362 7.56665 94.9092 7.63733 94.6616 7.77871C94.4322 7.92009 94.2465 8.07031 94.1052 8.22937C93.9457 8.42374 93.8401 8.6447 93.7869 8.89209H90.7384C90.8091 8.32659 90.9679 7.79639 91.2155 7.30155C91.4805 6.80672 91.8345 6.37374 92.2758 6.00261C92.7179 5.63149 93.2393 5.33989 93.8401 5.12782C94.4584 4.89807 95.1481 4.7832 95.9076 4.7832ZM94.9798 14.8566C95.7751 14.8566 96.4116 14.6268 96.8886 14.1674C97.3831 13.6902 97.6307 13.0805 97.6307 12.3383V11.808C96.7291 11.808 96.0052 11.8522 95.4568 11.9406C94.9092 12.0113 94.4759 12.1261 94.1584 12.2853C93.8576 12.4266 93.6544 12.6034 93.5481 12.8154C93.4425 13.0275 93.3893 13.2661 93.3893 13.5312C93.3893 13.8669 93.5393 14.1762 93.8401 14.459C94.1402 14.7241 94.5203 14.8566 94.9798 14.8566Z" fill="white"/>
<path d="M110.212 4.7832C110.937 4.7832 111.6 4.90691 112.201 5.15432C112.801 5.38407 113.314 5.72869 113.738 6.18818C114.18 6.62999 114.516 7.16901 114.745 7.80522C114.993 8.44144 115.117 9.15717 115.117 9.95244V17.1099H112.068V10.3501C112.068 9.5548 111.829 8.9186 111.352 8.44144C110.893 7.9466 110.292 7.69919 109.55 7.69919C108.808 7.69919 108.198 7.9466 107.72 8.44144C107.261 8.9186 107.031 9.5548 107.031 10.3501V17.1099H103.983V4.91575H106.236L106.766 6.10864C107.067 5.86123 107.393 5.64032 107.747 5.44592C108.047 5.28687 108.401 5.13665 108.808 4.99527C109.231 4.85389 109.7 4.7832 110.212 4.7832Z" fill="white"/>
<path d="M117.115 4.91553H120.296L123.344 12.8682L126.128 4.91553H129.309C128.443 7.14228 127.657 9.15696 126.95 10.9595C126.649 11.7372 126.349 12.4971 126.048 13.2394C125.766 13.9816 125.509 14.662 125.28 15.2805C125.05 15.8814 124.855 16.3851 124.697 16.7915C124.537 17.198 124.44 17.4366 124.405 17.5073C124.105 18.2319 123.804 18.8416 123.504 19.3364C123.221 19.8489 122.912 20.2642 122.576 20.5823C122.24 20.9005 121.878 21.1301 121.489 21.2716C121.101 21.4129 120.658 21.4836 120.163 21.4836C120.022 21.4836 119.881 21.4748 119.739 21.4571C119.616 21.4571 119.51 21.4483 119.421 21.4306C119.297 21.4129 119.192 21.3864 119.103 21.3511V18.8327C119.775 18.8327 120.287 18.6825 120.641 18.3821C121.012 18.0816 121.294 17.7017 121.489 17.2422L121.754 16.5795L117.115 4.91553Z" fill="white"/>
</g>
<defs>
<clipPath id="clip0_23_1661">
<rect width="128.902" height="21.1196" fill="white" transform="translate(0.543457 0.843506)"/>
</clipPath>
</defs>
</svg>
