<svg width="38" height="39" viewBox="0 0 38 39" fill="none" xmlns="http://www.w3.org/2000/svg">
<rect y="0.0234375" width="38" height="38" rx="19" fill="#0328EE"/>
<g clip-path="url(#clip0_231_29285)">
<path opacity="0.4" d="M29.2061 23.6489C29.2061 26.5866 26.8313 28.9661 23.8734 28.9767H23.8628H13.3567C10.4095 28.9767 8.00293 26.6076 8.00293 23.6699V23.6594C8.00293 23.6594 8.00929 18.9991 8.01777 16.6553C8.01883 16.2152 8.52771 15.9688 8.87438 16.2426C11.3933 18.2273 15.8979 21.8463 15.9541 21.8937C16.7068 22.4927 17.6609 22.8308 18.6363 22.8308C19.6117 22.8308 20.5658 22.4927 21.3185 21.8821C21.3746 21.8452 25.7785 18.3347 28.3356 16.3173C28.6834 16.0425 29.1944 16.2889 29.1954 16.728C29.2061 19.0539 29.2061 23.6489 29.2061 23.6489Z" fill="white"/>
<path d="M28.6494 12.839C27.7314 11.1206 25.9248 10.0234 23.936 10.0234H13.3556C11.3668 10.0234 9.56028 11.1206 8.64218 12.839C8.43651 13.2233 8.53405 13.7024 8.87648 13.974L16.7481 20.2274C17.2994 20.6696 17.9673 20.8896 18.6352 20.8896C18.6394 20.8896 18.6426 20.8896 18.6458 20.8896C18.649 20.8896 18.6532 20.8896 18.6564 20.8896C19.3243 20.8896 19.9922 20.6696 20.5435 20.2274L28.4151 13.974C28.7575 13.7024 28.8551 13.2233 28.6494 12.839Z" fill="white"/>
</g>
<defs>
<clipPath id="clip0_231_29285">
<rect width="22" height="19" fill="white" transform="translate(8.00293 10.0234)"/>
</clipPath>
</defs>
</svg>
