<svg width="46" height="46" viewBox="0 0 46 46" fill="none" xmlns="http://www.w3.org/2000/svg">
<rect width="46" height="46" rx="13" fill="#0328EE"/>
<g clip-path="url(#clip0_23_19499)">
<path d="M22.5917 41.1135C32.3073 41.1135 40.1834 33.2374 40.1834 23.5218C40.1834 13.8061 32.3073 5.93005 22.5917 5.93005C12.8761 5.93005 5 13.8061 5 23.5218C5 33.2374 12.8761 41.1135 22.5917 41.1135Z" fill="white" fill-opacity="0.4"/>
<path d="M26.0349 12.6579C26.0349 12.2124 25.4963 11.9893 25.1814 12.3043L13.7111 23.7745C13.5907 23.8951 13.5087 24.0486 13.4755 24.2158C13.4423 24.3829 13.4594 24.5562 13.5246 24.7136C13.5898 24.8711 13.7002 25.0057 13.8418 25.1004C13.9835 25.1952 14.15 25.2458 14.3204 25.246H18.6488C18.9249 25.246 19.1488 25.4699 19.1488 25.746V34.3854C19.1488 34.8308 19.6873 35.0539 20.0023 34.7389L31.4726 23.2687C31.593 23.1481 31.675 22.9945 31.7082 22.8274C31.7414 22.6602 31.7243 22.487 31.6591 22.3295C31.5939 22.1721 31.4835 22.0375 31.3419 21.9427C31.2002 21.848 31.0337 21.7973 30.8633 21.7972H26.5349C26.2588 21.7972 26.0349 21.5733 26.0349 21.2972V12.6579Z" fill="white"/>
</g>
<defs>
<clipPath id="clip0_23_19499">
<rect width="36" height="37" fill="white" transform="translate(5 5)"/>
</clipPath>
</defs>
</svg>
